<svg xmlns="http://www.w3.org/2000/svg" width="1200" height="750" viewBox="0 0 1200 750">
  <defs>
    <linearGradient id="bg" x1="0" x2="1" y1="0" y2="1">
      <stop offset="0" stop-color="#081225"/>
      <stop offset="1" stop-color="#142347"/>
    </linearGradient>
    <filter id="shadow" x="-20%" y="-20%" width="140%" height="140%">
      <feDropShadow dx="0" dy="14" stdDeviation="18" flood-color="#000" flood-opacity="0.45"/>
    </filter>
  </defs>

  <rect width="1200" height="750" fill="url(#bg)"/>

  <g filter="url(#shadow)">
    <rect x="90" y="70" width="1020" height="610" rx="18" fill="#0b1020" fill-opacity="0.55" stroke="#ffffff" stroke-opacity="0.14"/>
    <rect x="90" y="70" width="1020" height="54" rx="18" fill="#0b1020" stroke="#ffffff" stroke-opacity="0.10"/>
    <circle cx="126" cy="97" r="7" fill="#ff5f57"/>
    <circle cx="150" cy="97" r="7" fill="#febc2e"/>
    <circle cx="174" cy="97" r="7" fill="#28c840"/>
    <rect x="220" y="84" width="700" height="26" rx="13" fill="#ffffff" fill-opacity="0.08" stroke="#ffffff" stroke-opacity="0.10"/>
    <text x="240" y="102" fill="#e6edf7" font-family="ui-sans-serif, system-ui, Segoe UI, Roboto, Arial" font-size="13">
      Publication LinkedIn (simulation)  bilan énergétique 2024 · Ville de Colomiers
    </text>

    <!-- Feed -->
    <rect x="230" y="145" width="740" height="505" rx="16" fill="#0f1833" fill-opacity="0.78" stroke="#ffffff" stroke-opacity="0.10"/>
    <rect x="260" y="175" width="680" height="60" rx="14" fill="#0a1228" stroke="#ffffff" stroke-opacity="0.08"/>
    <circle cx="295" cy="205" r="18" fill="#60a5fa" fill-opacity="0.20" stroke="#60a5fa" stroke-opacity="0.25"/>
    <text x="325" y="202" fill="#ffffff" font-family="ui-sans-serif, system-ui, Segoe UI, Roboto, Arial" font-size="14" font-weight="800">
      Mairie de Colomiers (simulation)
    </text>
    <text x="325" y="222" fill="#c7d2e8" font-family="ui-sans-serif, system-ui, Segoe UI, Roboto, Arial" font-size="12">
      Transition écologique · Énergie · 2024
    </text>

    <text x="260" y="278" fill="#e6edf7" font-family="ui-sans-serif, system-ui, Segoe UI, Roboto, Arial" font-size="18" font-weight="900">
      Bilan énergétique 2024 : indicateurs &amp; trajectoire
    </text>
    <rect x="260" y="292" width="660" height="10" rx="5" fill="#ffffff" fill-opacity="0.10"/>
    <rect x="260" y="314" width="610" height="10" rx="5" fill="#ffffff" fill-opacity="0.10"/>

    <!-- Carousel/visual -->
    <rect x="260" y="346" width="680" height="240" rx="14" fill="#061027" stroke="#ffffff" stroke-opacity="0.10"/>
    <text x="285" y="380" fill="#e6edf7" font-family="ui-sans-serif, system-ui, Segoe UI, Roboto, Arial" font-size="12" font-weight="700" opacity="0.85">
      Tableau de bord (simulation)
    </text>
    <rect x="285" y="400" width="300" height="160" rx="12" fill="#0a1a32" stroke="#ffffff" stroke-opacity="0.10"/>
    <rect x="610" y="400" width="300" height="70" rx="12" fill="#0a1a32" stroke="#ffffff" stroke-opacity="0.10"/>
    <rect x="610" y="490" width="300" height="70" rx="12" fill="#0a1a32" stroke="#ffffff" stroke-opacity="0.10"/>

    <rect x="305" y="520" width="36" height="40" rx="8" fill="#22c55e" fill-opacity="0.80"/>
    <rect x="350" y="500" width="36" height="60" rx="8" fill="#f59e0b" fill-opacity="0.80"/>
    <rect x="395" y="480" width="36" height="80" rx="8" fill="#22c55e" fill-opacity="0.75"/>
    <rect x="440" y="510" width="36" height="50" rx="8" fill="#ef4444" fill-opacity="0.75"/>

    <text x="625" y="432" fill="#c7d2e8" font-family="ui-sans-serif, system-ui, Segoe UI, Roboto, Arial" font-size="12">
      Consommations (kWh)
    </text>
    <rect x="625" y="448" width="260" height="10" rx="5" fill="#ffffff" fill-opacity="0.10"/>

    <text x="625" y="522" fill="#c7d2e8" font-family="ui-sans-serif, system-ui, Segoe UI, Roboto, Arial" font-size="12">
      Émissions (tCO‚e)
    </text>
    <rect x="625" y="538" width="220" height="10" rx="5" fill="#ffffff" fill-opacity="0.10"/>

    <!-- Actions -->
    <rect x="260" y="610" width="80" height="12" rx="6" fill="#ffffff" fill-opacity="0.10"/>
    <rect x="355" y="610" width="110" height="12" rx="6" fill="#ffffff" fill-opacity="0.10"/>
    <rect x="480" y="610" width="95" height="12" rx="6" fill="#ffffff" fill-opacity="0.10"/>

    <text x="1080" y="660" text-anchor="end" fill="#ffffff" fill-opacity="0.45" font-family="ui-sans-serif, system-ui, Segoe UI, Roboto, Arial" font-size="12">
      Capture simulée  usage illustration
    </text>
  </g>
</svg>

