<svg xmlns="http://www.w3.org/2000/svg" width="1200" height="750" viewBox="0 0 1200 750">
  <defs>
    <linearGradient id="bg" x1="0" x2="1" y1="0" y2="1">
      <stop offset="0" stop-color="#0b1220"/>
      <stop offset="1" stop-color="#101b34"/>
    </linearGradient>
    <linearGradient id="panel" x1="0" x2="0" y1="0" y2="1">
      <stop offset="0" stop-color="#ffffff" stop-opacity="0.10"/>
      <stop offset="1" stop-color="#ffffff" stop-opacity="0.05"/>
    </linearGradient>
    <filter id="shadow" x="-20%" y="-20%" width="140%" height="140%">
      <feDropShadow dx="0" dy="14" stdDeviation="18" flood-color="#000" flood-opacity="0.45"/>
    </filter>
  </defs>

  <!-- Background -->
  <rect width="1200" height="750" fill="url(#bg)"/>

  <!-- Window -->
  <g filter="url(#shadow)">
    <rect x="90" y="70" width="1020" height="610" rx="18" fill="url(#panel)" stroke="#ffffff" stroke-opacity="0.14"/>
    <!-- Browser chrome -->
    <rect x="90" y="70" width="1020" height="54" rx="18" fill="#0b1020" stroke="#ffffff" stroke-opacity="0.10"/>
    <circle cx="126" cy="97" r="7" fill="#ff5f57"/>
    <circle cx="150" cy="97" r="7" fill="#febc2e"/>
    <circle cx="174" cy="97" r="7" fill="#28c840"/>
    <rect x="220" y="84" width="700" height="26" rx="13" fill="#ffffff" fill-opacity="0.08" stroke="#ffffff" stroke-opacity="0.10"/>
    <text x="240" y="102" fill="#e6edf7" font-family="ui-sans-serif, system-ui, Segoe UI, Roboto, Arial" font-size="13">
      Cadastre solaire  Perpignan Mťditerranťe Mťtropole (simulation)
    </text>

    <!-- Sidebar -->
    <rect x="120" y="145" width="290" height="505" rx="14" fill="#0d1630" fill-opacity="0.65" stroke="#ffffff" stroke-opacity="0.10"/>
    <text x="145" y="185" fill="#ffffff" font-family="ui-sans-serif, system-ui, Segoe UI, Roboto, Arial" font-size="16" font-weight="700">
      Potentiel solaire
    </text>
    <text x="145" y="210" fill="#c7d2e8" font-family="ui-sans-serif, system-ui, Segoe UI, Roboto, Arial" font-size="12">
      36 communes ∑ toiture ∑ kWh/m≤/an
    </text>

    <!-- Fake controls -->
    <rect x="145" y="240" width="240" height="12" rx="6" fill="#ffffff" fill-opacity="0.10"/>
    <rect x="145" y="270" width="200" height="12" rx="6" fill="#ffffff" fill-opacity="0.10"/>
    <rect x="145" y="300" width="230" height="12" rx="6" fill="#ffffff" fill-opacity="0.10"/>
    <rect x="145" y="338" width="240" height="86" rx="12" fill="#101b36" stroke="#ffffff" stroke-opacity="0.10"/>
    <text x="160" y="368" fill="#e6edf7" font-family="ui-sans-serif, system-ui, Segoe UI, Roboto, Arial" font-size="12" font-weight="700">
      Lťgende
    </text>
    <rect x="160" y="384" width="12" height="12" rx="2" fill="#22c55e"/>
    <text x="180" y="394" fill="#c7d2e8" font-family="ui-sans-serif, system-ui, Segoe UI, Roboto, Arial" font-size="12">Fort</text>
    <rect x="230" y="384" width="12" height="12" rx="2" fill="#f59e0b"/>
    <text x="250" y="394" fill="#c7d2e8" font-family="ui-sans-serif, system-ui, Segoe UI, Roboto, Arial" font-size="12">Moyen</text>
    <rect x="310" y="384" width="12" height="12" rx="2" fill="#ef4444"/>
    <text x="330" y="394" fill="#c7d2e8" font-family="ui-sans-serif, system-ui, Segoe UI, Roboto, Arial" font-size="12">Faible</text>

    <rect x="145" y="450" width="240" height="92" rx="12" fill="#101b36" stroke="#ffffff" stroke-opacity="0.10"/>
    <text x="160" y="480" fill="#e6edf7" font-family="ui-sans-serif, system-ui, Segoe UI, Roboto, Arial" font-size="12" font-weight="700">
      SynthŤse
    </text>
    <text x="160" y="505" fill="#c7d2e8" font-family="ui-sans-serif, system-ui, Segoe UI, Roboto, Arial" font-size="12">
      Toitures favorables : 12 480
    </text>
    <text x="160" y="528" fill="#c7d2e8" font-family="ui-sans-serif, system-ui, Segoe UI, Roboto, Arial" font-size="12">
      Puissance estimťe : 210 MWc
    </text>

    <!-- Map area -->
    <rect x="430" y="145" width="650" height="505" rx="14" fill="#061027" stroke="#ffffff" stroke-opacity="0.10"/>
    <!-- Streets (stylized) -->
    <path d="M470 210 C590 165, 720 170, 1030 250" stroke="#7aa2ff" stroke-opacity="0.25" stroke-width="10" fill="none"/>
    <path d="M450 310 C610 380, 780 370, 1060 330" stroke="#7aa2ff" stroke-opacity="0.20" stroke-width="8" fill="none"/>
    <path d="M520 170 C560 260, 570 420, 520 610" stroke="#7aa2ff" stroke-opacity="0.18" stroke-width="8" fill="none"/>
    <path d="M680 150 C710 260, 720 420, 700 640" stroke="#7aa2ff" stroke-opacity="0.18" stroke-width="8" fill="none"/>
    <path d="M900 170 C860 280, 860 420, 930 620" stroke="#7aa2ff" stroke-opacity="0.16" stroke-width="7" fill="none"/>

    <!-- Solar tiles (stylized heatmap) -->
    <g opacity="0.95">
      <rect x="515" y="235" width="64" height="34" rx="6" fill="#22c55e" fill-opacity="0.85"/>
      <rect x="590" y="260" width="58" height="32" rx="6" fill="#f59e0b" fill-opacity="0.85"/>
      <rect x="655" y="230" width="70" height="36" rx="6" fill="#22c55e" fill-opacity="0.80"/>
      <rect x="740" y="270" width="62" height="34" rx="6" fill="#ef4444" fill-opacity="0.80"/>
      <rect x="820" y="240" width="68" height="34" rx="6" fill="#f59e0b" fill-opacity="0.82"/>
      <rect x="910" y="290" width="74" height="36" rx="6" fill="#22c55e" fill-opacity="0.78"/>
      <rect x="980" y="240" width="60" height="32" rx="6" fill="#f59e0b" fill-opacity="0.75"/>

      <rect x="520" y="360" width="76" height="40" rx="6" fill="#f59e0b" fill-opacity="0.78"/>
      <rect x="610" y="410" width="70" height="38" rx="6" fill="#22c55e" fill-opacity="0.78"/>
      <rect x="700" y="385" width="78" height="40" rx="6" fill="#22c55e" fill-opacity="0.74"/>
      <rect x="795" y="430" width="86" height="42" rx="6" fill="#ef4444" fill-opacity="0.70"/>
      <rect x="900" y="400" width="72" height="38" rx="6" fill="#f59e0b" fill-opacity="0.72"/>
      <rect x="990" y="450" width="66" height="36" rx="6" fill="#22c55e" fill-opacity="0.72"/>
    </g>

    <!-- Watermark -->
    <text x="1080" y="660" text-anchor="end" fill="#ffffff" fill-opacity="0.45" font-family="ui-sans-serif, system-ui, Segoe UI, Roboto, Arial" font-size="12">
      Capture simulťe  usage illustration
    </text>
  </g>
</svg>

