<svg xmlns="http://www.w3.org/2000/svg" width="1200" height="750" viewBox="0 0 1200 750">
  <defs>
    <linearGradient id="bg" x1="0" x2="1" y1="0" y2="1">
      <stop offset="0" stop-color="#07111f"/>
      <stop offset="1" stop-color="#12203a"/>
    </linearGradient>
    <filter id="shadow" x="-20%" y="-20%" width="140%" height="140%">
      <feDropShadow dx="0" dy="14" stdDeviation="18" flood-color="#000" flood-opacity="0.45"/>
    </filter>
  </defs>

  <rect width="1200" height="750" fill="url(#bg)"/>

  <g filter="url(#shadow)">
    <rect x="90" y="70" width="1020" height="610" rx="18" fill="#0b1020" fill-opacity="0.55" stroke="#ffffff" stroke-opacity="0.14"/>
    <rect x="90" y="70" width="1020" height="54" rx="18" fill="#0b1020" stroke="#ffffff" stroke-opacity="0.10"/>
    <circle cx="126" cy="97" r="7" fill="#ff5f57"/>
    <circle cx="150" cy="97" r="7" fill="#febc2e"/>
    <circle cx="174" cy="97" r="7" fill="#28c840"/>
    <rect x="220" y="84" width="700" height="26" rx="13" fill="#ffffff" fill-opacity="0.08" stroke="#ffffff" stroke-opacity="0.10"/>
    <text x="240" y="102" fill="#e6edf7" font-family="ui-sans-serif, system-ui, Segoe UI, Roboto, Arial" font-size="13">
      Publication réseau social (simulation)  centrale photovoltaďque citoyenne
    </text>

    <!-- Social post layout -->
    <rect x="320" y="145" width="560" height="505" rx="16" fill="#0f1833" fill-opacity="0.78" stroke="#ffffff" stroke-opacity="0.10"/>

    <!-- Header -->
    <circle cx="360" cy="190" r="20" fill="#22c55e" fill-opacity="0.22" stroke="#22c55e" stroke-opacity="0.25"/>
    <text x="395" y="186" fill="#ffffff" font-family="ui-sans-serif, system-ui, Segoe UI, Roboto, Arial" font-size="14" font-weight="800">
      CitoyenR (simulation)
    </text>
    <text x="395" y="206" fill="#c7d2e8" font-family="ui-sans-serif, system-ui, Segoe UI, Roboto, Arial" font-size="12">
      Centrale photovoltaďque citoyenne · annonce
    </text>

    <!-- Content -->
    <text x="360" y="250" fill="#e6edf7" font-family="ui-sans-serif, system-ui, Segoe UI, Roboto, Arial" font-size="16" font-weight="800">
      16I centrale photovoltaďque citoyenne
    </text>
    <rect x="360" y="268" width="480" height="10" rx="5" fill="#ffffff" fill-opacity="0.10"/>
    <rect x="360" y="290" width="520" height="10" rx="5" fill="#ffffff" fill-opacity="0.10"/>
    <rect x="360" y="312" width="500" height="10" rx="5" fill="#ffffff" fill-opacity="0.10"/>

    <!-- Image placeholder -->
    <rect x="360" y="342" width="480" height="210" rx="14" fill="#061027" stroke="#ffffff" stroke-opacity="0.10"/>
    <path d="M390 520 L460 440 L520 490 L595 410 L650 470 L720 395 L810 520 Z" fill="#22c55e" fill-opacity="0.12"/>
    <rect x="392" y="360" width="120" height="18" rx="9" fill="#f59e0b" fill-opacity="0.18"/>
    <text x="405" y="373" fill="#e6edf7" font-family="ui-sans-serif, system-ui, Segoe UI, Roboto, Arial" font-size="11" font-weight="700">
      PV citoyen
    </text>

    <!-- Actions -->
    <rect x="360" y="570" width="70" height="12" rx="6" fill="#ffffff" fill-opacity="0.10"/>
    <rect x="450" y="570" width="90" height="12" rx="6" fill="#ffffff" fill-opacity="0.10"/>
    <rect x="560" y="570" width="80" height="12" rx="6" fill="#ffffff" fill-opacity="0.10"/>
    <rect x="660" y="570" width="60" height="12" rx="6" fill="#ffffff" fill-opacity="0.10"/>

    <text x="1080" y="660" text-anchor="end" fill="#ffffff" fill-opacity="0.45" font-family="ui-sans-serif, system-ui, Segoe UI, Roboto, Arial" font-size="12">
      Capture simulée  usage illustration
    </text>
  </g>
</svg>

