<svg xmlns="http://www.w3.org/2000/svg" width="1200" height="750" viewBox="0 0 1200 750">
  <defs>
    <linearGradient id="bg" x1="0" x2="1" y1="0" y2="1">
      <stop offset="0" stop-color="#0a1020"/>
      <stop offset="1" stop-color="#151a34"/>
    </linearGradient>
    <filter id="shadow" x="-20%" y="-20%" width="140%" height="140%">
      <feDropShadow dx="0" dy="14" stdDeviation="18" flood-color="#000" flood-opacity="0.45"/>
    </filter>
  </defs>
  <rect width="1200" height="750" fill="url(#bg)"/>

  <g filter="url(#shadow)">
    <rect x="90" y="70" width="1020" height="610" rx="18" fill="#0b1020" fill-opacity="0.55" stroke="#ffffff" stroke-opacity="0.14"/>
    <rect x="90" y="70" width="1020" height="54" rx="18" fill="#0b1020" stroke="#ffffff" stroke-opacity="0.10"/>
    <circle cx="126" cy="97" r="7" fill="#ff5f57"/>
    <circle cx="150" cy="97" r="7" fill="#febc2e"/>
    <circle cx="174" cy="97" r="7" fill="#28c840"/>
    <rect x="220" y="84" width="700" height="26" rx="13" fill="#ffffff" fill-opacity="0.08" stroke="#ffffff" stroke-opacity="0.10"/>
    <text x="240" y="102" fill="#e6edf7" font-family="ui-sans-serif, system-ui, Segoe UI, Roboto, Arial" font-size="13">
      PDF (simulation)  Programme ODD · diagnostic potentiel ENR (PMM)
    </text>

    <!-- PDF viewer -->
    <rect x="130" y="145" width="940" height="505" rx="14" fill="#0f1833" fill-opacity="0.75" stroke="#ffffff" stroke-opacity="0.10"/>
    <rect x="130" y="145" width="940" height="52" rx="14" fill="#0a1228" stroke="#ffffff" stroke-opacity="0.08"/>
    <text x="165" y="177" fill="#e6edf7" font-family="ui-sans-serif, system-ui, Segoe UI, Roboto, Arial" font-size="13">
      Programme ODD  synthčse (simulation) · Page 12/64
    </text>
    <rect x="900" y="162" width="140" height="18" rx="9" fill="#ffffff" fill-opacity="0.08"/>
    <text x="912" y="176" fill="#c7d2e8" font-family="ui-sans-serif, system-ui, Segoe UI, Roboto, Arial" font-size="11">
      Recherche&
    </text>

    <!-- Page -->
    <rect x="175" y="220" width="850" height="400" rx="12" fill="#ffffff" fill-opacity="0.92"/>
    <rect x="175" y="220" width="850" height="62" rx="12" fill="#0f172a" fill-opacity="0.96"/>
    <text x="210" y="260" fill="#ffffff" font-family="ui-sans-serif, system-ui, Segoe UI, Roboto, Arial" font-size="18" font-weight="800">
      Programme ODD  Transition énergétique
    </text>
    <text x="210" y="305" fill="#0f172a" font-family="ui-sans-serif, system-ui, Segoe UI, Roboto, Arial" font-size="14" font-weight="800">
      Diagnostic du potentiel ENR (extrait  simulation)
    </text>
    <rect x="210" y="320" width="770" height="10" rx="5" fill="#0f172a" fill-opacity="0.10"/>
    <rect x="210" y="342" width="740" height="10" rx="5" fill="#0f172a" fill-opacity="0.10"/>
    <rect x="210" y="364" width="760" height="10" rx="5" fill="#0f172a" fill-opacity="0.10"/>

    <!-- Chart -->
    <rect x="210" y="402" width="380" height="170" rx="12" fill="#0f172a" fill-opacity="0.04" stroke="#0f172a" stroke-opacity="0.12"/>
    <text x="230" y="430" fill="#0f172a" font-family="ui-sans-serif, system-ui, Segoe UI, Roboto, Arial" font-size="12" font-weight="700">
      Potentiel ENR (illustration)
    </text>
    <rect x="235" y="540" width="40" height="20" rx="6" fill="#22c55e" fill-opacity="0.75"/>
    <rect x="285" y="520" width="40" height="40" rx="6" fill="#22c55e" fill-opacity="0.75"/>
    <rect x="335" y="500" width="40" height="60" rx="6" fill="#f59e0b" fill-opacity="0.75"/>
    <rect x="385" y="470" width="40" height="90" rx="6" fill="#22c55e" fill-opacity="0.75"/>
    <rect x="435" y="490" width="40" height="70" rx="6" fill="#ef4444" fill-opacity="0.75"/>

    <!-- Callout -->
    <rect x="615" y="402" width="365" height="170" rx="12" fill="#22c55e" fill-opacity="0.08" stroke="#22c55e" stroke-opacity="0.18"/>
    <text x="635" y="432" fill="#0f172a" font-family="ui-sans-serif, system-ui, Segoe UI, Roboto, Arial" font-size="12" font-weight="800">
      Mention : diagnostic potentiel maximal ENR
    </text>
    <rect x="635" y="448" width="320" height="10" rx="5" fill="#0f172a" fill-opacity="0.10"/>
    <rect x="635" y="470" width="340" height="10" rx="5" fill="#0f172a" fill-opacity="0.10"/>
    <rect x="635" y="492" width="300" height="10" rx="5" fill="#0f172a" fill-opacity="0.10"/>
    <rect x="635" y="520" width="200" height="12" rx="6" fill="#0f172a" fill-opacity="0.12"/>
    <text x="845" y="529" fill="#0f172a" font-family="ui-sans-serif, system-ui, Segoe UI, Roboto, Arial" font-size="10">
      Extrait (simulation)
    </text>

    <text x="1080" y="660" text-anchor="end" fill="#ffffff" fill-opacity="0.45" font-family="ui-sans-serif, system-ui, Segoe UI, Roboto, Arial" font-size="12">
      Capture simulée  usage illustration
    </text>
  </g>
</svg>

